<mxfile host="app.diagrams.net" agent="Mozilla/5.0 (Windows NT 10.0; Win64; x64) AppleWebKit/537.36 (KHTML, like Gecko) Chrome/128.0.0.0 Safari/537.36 OPR/114.0.0.0" version="25.0.3">
  <diagram id="C5RBs43oDa-KdzZeNtuy" name="Page-1">
    <mxGraphModel dx="837" dy="487" grid="1" gridSize="10" guides="1" tooltips="1" connect="1" arrows="1" fold="1" page="1" pageScale="1" pageWidth="827" pageHeight="1169" math="0" shadow="0">
      <root>
        <mxCell id="WIyWlLk6GJQsqaUBKTNV-0" />
        <mxCell id="WIyWlLk6GJQsqaUBKTNV-1" parent="WIyWlLk6GJQsqaUBKTNV-0" />
        <mxCell id="-HD5H0VyRTJgcAMjQbk--2" style="edgeStyle=orthogonalEdgeStyle;rounded=0;orthogonalLoop=1;jettySize=auto;html=1;entryX=0.5;entryY=0;entryDx=0;entryDy=0;" parent="WIyWlLk6GJQsqaUBKTNV-1" target="-HD5H0VyRTJgcAMjQbk--1" edge="1">
          <mxGeometry relative="1" as="geometry">
            <mxPoint x="100" y="130" as="sourcePoint" />
          </mxGeometry>
        </mxCell>
        <mxCell id="-HD5H0VyRTJgcAMjQbk--1" value="Input N" style="shape=parallelogram;html=1;strokeWidth=2;perimeter=parallelogramPerimeter;whiteSpace=wrap;rounded=1;arcSize=12;size=0.23;" parent="WIyWlLk6GJQsqaUBKTNV-1" vertex="1">
          <mxGeometry x="50" y="210" width="100" height="60" as="geometry" />
        </mxCell>
        <mxCell id="-HD5H0VyRTJgcAMjQbk--5" style="edgeStyle=orthogonalEdgeStyle;rounded=0;orthogonalLoop=1;jettySize=auto;html=1;entryX=1;entryY=0.5;entryDx=0;entryDy=0;" parent="WIyWlLk6GJQsqaUBKTNV-1" source="-HD5H0VyRTJgcAMjQbk--3" target="-HD5H0VyRTJgcAMjQbk--1" edge="1">
          <mxGeometry relative="1" as="geometry">
            <mxPoint x="240" y="240" as="targetPoint" />
            <Array as="points">
              <mxPoint x="241" y="380" />
              <mxPoint x="241" y="240" />
            </Array>
          </mxGeometry>
        </mxCell>
        <mxCell id="-HD5H0VyRTJgcAMjQbk--8" style="edgeStyle=orthogonalEdgeStyle;rounded=0;orthogonalLoop=1;jettySize=auto;html=1;" parent="WIyWlLk6GJQsqaUBKTNV-1" source="-HD5H0VyRTJgcAMjQbk--3" target="-HD5H0VyRTJgcAMjQbk--9" edge="1">
          <mxGeometry relative="1" as="geometry">
            <mxPoint x="100" y="500" as="targetPoint" />
          </mxGeometry>
        </mxCell>
        <mxCell id="-HD5H0VyRTJgcAMjQbk--3" value="N&amp;lt;0" style="strokeWidth=2;html=1;shape=mxgraph.flowchart.decision;whiteSpace=wrap;" parent="WIyWlLk6GJQsqaUBKTNV-1" vertex="1">
          <mxGeometry x="50" y="330" width="100" height="100" as="geometry" />
        </mxCell>
        <mxCell id="-HD5H0VyRTJgcAMjQbk--4" style="edgeStyle=orthogonalEdgeStyle;rounded=0;orthogonalLoop=1;jettySize=auto;html=1;entryX=0.5;entryY=0;entryDx=0;entryDy=0;entryPerimeter=0;" parent="WIyWlLk6GJQsqaUBKTNV-1" source="-HD5H0VyRTJgcAMjQbk--1" target="-HD5H0VyRTJgcAMjQbk--3" edge="1">
          <mxGeometry relative="1" as="geometry" />
        </mxCell>
        <mxCell id="-HD5H0VyRTJgcAMjQbk--7" value="True" style="text;html=1;align=center;verticalAlign=middle;resizable=0;points=[];autosize=1;strokeColor=none;fillColor=none;" parent="WIyWlLk6GJQsqaUBKTNV-1" vertex="1">
          <mxGeometry x="155" y="348" width="50" height="30" as="geometry" />
        </mxCell>
        <mxCell id="-HD5H0VyRTJgcAMjQbk--10" style="edgeStyle=orthogonalEdgeStyle;rounded=0;orthogonalLoop=1;jettySize=auto;html=1;" parent="WIyWlLk6GJQsqaUBKTNV-1" source="-HD5H0VyRTJgcAMjQbk--9" target="-HD5H0VyRTJgcAMjQbk--11" edge="1">
          <mxGeometry relative="1" as="geometry">
            <mxPoint x="100" y="680" as="targetPoint" />
          </mxGeometry>
        </mxCell>
        <mxCell id="-HD5H0VyRTJgcAMjQbk--9" value="int i=1" style="rounded=1;whiteSpace=wrap;html=1;absoluteArcSize=1;arcSize=14;strokeWidth=2;" parent="WIyWlLk6GJQsqaUBKTNV-1" vertex="1">
          <mxGeometry x="50" y="500" width="100" height="100" as="geometry" />
        </mxCell>
        <mxCell id="-HD5H0VyRTJgcAMjQbk--12" style="edgeStyle=orthogonalEdgeStyle;rounded=0;orthogonalLoop=1;jettySize=auto;html=1;entryX=0;entryY=0.5;entryDx=0;entryDy=0;entryPerimeter=0;" parent="WIyWlLk6GJQsqaUBKTNV-1" source="-HD5H0VyRTJgcAMjQbk--11" edge="1">
          <mxGeometry relative="1" as="geometry">
            <mxPoint x="330" y="730" as="targetPoint" />
          </mxGeometry>
        </mxCell>
        <mxCell id="-HD5H0VyRTJgcAMjQbk--15" style="edgeStyle=orthogonalEdgeStyle;rounded=0;orthogonalLoop=1;jettySize=auto;html=1;entryX=0.5;entryY=0;entryDx=0;entryDy=0;entryPerimeter=0;" parent="WIyWlLk6GJQsqaUBKTNV-1" source="-HD5H0VyRTJgcAMjQbk--11" target="-HD5H0VyRTJgcAMjQbk--17" edge="1">
          <mxGeometry relative="1" as="geometry">
            <mxPoint x="100" y="860" as="targetPoint" />
          </mxGeometry>
        </mxCell>
        <mxCell id="-HD5H0VyRTJgcAMjQbk--11" value="i &amp;lt;= N" style="strokeWidth=2;html=1;shape=mxgraph.flowchart.decision;whiteSpace=wrap;" parent="WIyWlLk6GJQsqaUBKTNV-1" vertex="1">
          <mxGeometry x="50" y="680" width="100" height="100" as="geometry" />
        </mxCell>
        <mxCell id="-HD5H0VyRTJgcAMjQbk--13" value="False" style="text;html=1;align=center;verticalAlign=middle;resizable=0;points=[];autosize=1;strokeColor=none;fillColor=none;" parent="WIyWlLk6GJQsqaUBKTNV-1" vertex="1">
          <mxGeometry x="145" y="688" width="50" height="30" as="geometry" />
        </mxCell>
        <mxCell id="-HD5H0VyRTJgcAMjQbk--16" value="True" style="text;html=1;align=center;verticalAlign=middle;resizable=0;points=[];autosize=1;strokeColor=none;fillColor=none;" parent="WIyWlLk6GJQsqaUBKTNV-1" vertex="1">
          <mxGeometry x="105" y="788" width="50" height="30" as="geometry" />
        </mxCell>
        <mxCell id="-HD5H0VyRTJgcAMjQbk--18" style="edgeStyle=orthogonalEdgeStyle;rounded=0;orthogonalLoop=1;jettySize=auto;html=1;entryX=0.5;entryY=0;entryDx=0;entryDy=0;entryPerimeter=0;" parent="WIyWlLk6GJQsqaUBKTNV-1" source="-HD5H0VyRTJgcAMjQbk--17" target="aAMVkr43ykBePU5nD_kj-0" edge="1">
          <mxGeometry relative="1" as="geometry">
            <mxPoint x="100" y="1050" as="targetPoint" />
          </mxGeometry>
        </mxCell>
        <mxCell id="-HD5H0VyRTJgcAMjQbk--25" style="edgeStyle=orthogonalEdgeStyle;rounded=0;orthogonalLoop=1;jettySize=auto;html=1;" parent="WIyWlLk6GJQsqaUBKTNV-1" source="-HD5H0VyRTJgcAMjQbk--17" target="-HD5H0VyRTJgcAMjQbk--26" edge="1">
          <mxGeometry relative="1" as="geometry">
            <mxPoint x="290" y="910" as="targetPoint" />
          </mxGeometry>
        </mxCell>
        <mxCell id="-HD5H0VyRTJgcAMjQbk--17" value="N % i==0" style="strokeWidth=2;html=1;shape=mxgraph.flowchart.decision;whiteSpace=wrap;" parent="WIyWlLk6GJQsqaUBKTNV-1" vertex="1">
          <mxGeometry x="50" y="860" width="100" height="100" as="geometry" />
        </mxCell>
        <mxCell id="-HD5H0VyRTJgcAMjQbk--19" value="True" style="text;html=1;align=center;verticalAlign=middle;resizable=0;points=[];autosize=1;strokeColor=none;fillColor=none;" parent="WIyWlLk6GJQsqaUBKTNV-1" vertex="1">
          <mxGeometry x="95" y="978" width="50" height="30" as="geometry" />
        </mxCell>
        <mxCell id="-HD5H0VyRTJgcAMjQbk--27" style="edgeStyle=orthogonalEdgeStyle;rounded=0;orthogonalLoop=1;jettySize=auto;html=1;entryX=0.5;entryY=1;entryDx=0;entryDy=0;exitX=1;exitY=0.5;exitDx=0;exitDy=0;" parent="WIyWlLk6GJQsqaUBKTNV-1" source="aAMVkr43ykBePU5nD_kj-0" edge="1">
          <mxGeometry relative="1" as="geometry">
            <mxPoint x="180.0037219730942" y="1107.085201793722" as="sourcePoint" />
            <mxPoint x="628.21" y="635" as="targetPoint" />
            <Array as="points">
              <mxPoint x="600" y="1095" />
              <mxPoint x="600" y="635" />
            </Array>
          </mxGeometry>
        </mxCell>
        <mxCell id="-HD5H0VyRTJgcAMjQbk--22" style="edgeStyle=orthogonalEdgeStyle;rounded=0;orthogonalLoop=1;jettySize=auto;html=1;entryX=0;entryY=0.5;entryDx=0;entryDy=0;entryPerimeter=0;" parent="WIyWlLk6GJQsqaUBKTNV-1" source="-HD5H0VyRTJgcAMjQbk--17" target="-HD5H0VyRTJgcAMjQbk--11" edge="1">
          <mxGeometry relative="1" as="geometry">
            <Array as="points">
              <mxPoint x="30" y="910" />
              <mxPoint x="30" y="730" />
            </Array>
          </mxGeometry>
        </mxCell>
        <mxCell id="-HD5H0VyRTJgcAMjQbk--23" value="False" style="text;html=1;align=center;verticalAlign=middle;resizable=0;points=[];autosize=1;strokeColor=none;fillColor=none;" parent="WIyWlLk6GJQsqaUBKTNV-1" vertex="1">
          <mxGeometry x="190" y="870" width="50" height="30" as="geometry" />
        </mxCell>
        <mxCell id="-HD5H0VyRTJgcAMjQbk--24" value="False" style="text;html=1;align=center;verticalAlign=middle;resizable=0;points=[];autosize=1;strokeColor=none;fillColor=none;" parent="WIyWlLk6GJQsqaUBKTNV-1" vertex="1">
          <mxGeometry x="100" y="438" width="50" height="30" as="geometry" />
        </mxCell>
        <mxCell id="-HD5H0VyRTJgcAMjQbk--26" value="i = i +1" style="rounded=1;whiteSpace=wrap;html=1;absoluteArcSize=1;arcSize=14;strokeWidth=2;" parent="WIyWlLk6GJQsqaUBKTNV-1" vertex="1">
          <mxGeometry x="550" y="535" width="100" height="100" as="geometry" />
        </mxCell>
        <mxCell id="-HD5H0VyRTJgcAMjQbk--29" style="edgeStyle=orthogonalEdgeStyle;rounded=0;orthogonalLoop=1;jettySize=auto;html=1;entryX=0.5;entryY=0;entryDx=0;entryDy=0;entryPerimeter=0;" parent="WIyWlLk6GJQsqaUBKTNV-1" source="-HD5H0VyRTJgcAMjQbk--26" target="-HD5H0VyRTJgcAMjQbk--11" edge="1">
          <mxGeometry relative="1" as="geometry">
            <Array as="points">
              <mxPoint x="100" y="610" />
            </Array>
          </mxGeometry>
        </mxCell>
        <mxCell id="aAMVkr43ykBePU5nD_kj-0" value="print(&quot;i là ước của N&quot;)" style="shape=parallelogram;html=1;strokeWidth=2;perimeter=parallelogramPerimeter;whiteSpace=wrap;rounded=1;arcSize=12;size=0.23;" parent="WIyWlLk6GJQsqaUBKTNV-1" vertex="1">
          <mxGeometry x="25" y="1060" width="150" height="70" as="geometry" />
        </mxCell>
        <mxCell id="HDS5P34dMLAxLzE9cacA-0" value="START" style="strokeWidth=2;html=1;shape=mxgraph.flowchart.start_1;whiteSpace=wrap;" vertex="1" parent="WIyWlLk6GJQsqaUBKTNV-1">
          <mxGeometry x="50" y="70" width="100" height="60" as="geometry" />
        </mxCell>
        <mxCell id="HDS5P34dMLAxLzE9cacA-1" value="END" style="strokeWidth=2;html=1;shape=mxgraph.flowchart.start_1;whiteSpace=wrap;" vertex="1" parent="WIyWlLk6GJQsqaUBKTNV-1">
          <mxGeometry x="330" y="700" width="100" height="60" as="geometry" />
        </mxCell>
      </root>
    </mxGraphModel>
  </diagram>
</mxfile>
